<?xml version="1.0" encoding="UTF-8" standalone="no"?><!DOCTYPE svg PUBLIC "-//W3C//DTD SVG 1.1//EN" "http://www.w3.org/Graphics/SVG/1.1/DTD/svg11.dtd"><svg width="100%" height="100%" viewBox="0 0 168017 80080" version="1.1" xmlns="http://www.w3.org/2000/svg" xmlns:xlink="http://www.w3.org/1999/xlink" xml:space="preserve" xmlns:serif="http://www.serif.com/" style="fill-rule:evenodd;clip-rule:evenodd;stroke-linejoin:round;stroke-miterlimit:2;"><rect id="Artboard1" x="49380.654" y="8611.113" width="33333.333" height="18750" style="fill:none;"/><circle cx="73501.508" cy="17479.304" r="3341.825"/><path d="M71792.183,15881.908l3592.262,337.862l0,1698.087l-1937.962,1540.783l0,-877.692l-1654.304,0l0,-2699.042l0.004,-0Zm3302.717,579.971l-3022.121,1941.358l1540.604,-10.983l0,684.25l1442.596,-1110.879l-1403.233,0l1442.158,-1503.746l-0.004,0Z" style="fill:#fff;"/><g><circle cx="63411.163" cy="17479.304" r="3341.825"/><path d="M62910.217,19333.183l259.742,-1308.108l-1823.925,219.325l92.546,-493.562l286.787,-1444.3c0,0 1921.279,-231.029 2717.896,-326.825c78.958,-9.496 157.683,19.417 211.729,77.754c54.046,58.338 76.871,139.042 61.379,217.046c-0.004,0.017 -0.004,0.025 -0.004,0.025l147.475,-23.625l702.338,-84.454l-319.467,1608.892l-850.812,102.308l-243.504,241.179l-1242.175,1214.346l-0.004,0Z" style="fill:#fff;"/></g><g><g><text x="59056.548px" y="13031px" style="font-family:'Montserrat-Bold', 'Montserrat';font-weight:700;font-size:3057.519px;fill:#343434;">Sup</text><text x="65189.93px" y="13031px" style="font-family:'Montserrat-Bold', 'Montserrat';font-weight:700;font-size:3057.519px;fill:#343434;">a</text></g><text x="67076.419px" y="13031px" style="font-family:'Montserrat-Regular', 'Montserrat';font-size:3057.519px;fill:#343434;">Phone</text></g><path d="M50601.917,9607.8l6718.646,631.908l0,3175.954l-3624.587,2881.742l0,-1641.558l-3094.058,0l0,-5048.046Zm6177.104,1084.725l-5652.304,3630.937l2881.408,-20.542l0,1279.763l2698.1,-2077.688l-2624.483,0l2697.279,-2812.471Z" style="fill:#471dcf;"/><rect id="Artboard2" x="88165.375" y="0" width="37500" height="37500" style="fill:#471dcf;"/><g><clipPath id="_clip1"><rect x="88165.375" y="0" width="37500" height="37500"/></clipPath><g clip-path="url(#_clip1)"><g><circle cx="66047.321" cy="17986.113" r="18750"/><path d="M63236.658,28387.696l1457.342,-7339.417l-10233.517,1230.567l519.242,-2769.225l1609.071,-8103.542c0,0 14406.671,-1732.379 16815.858,-2022.083c78.958,-9.496 157.683,19.417 211.729,77.754c54.046,58.337 76.871,139.042 61.379,217.046c-107.521,541.483 -307.329,1547.75 -307.329,1547.75l827.429,-132.562l3940.621,-473.854l-1792.438,9027.008l-4773.667,574.025l-1366.242,1353.192l-6969.483,6813.342l0.004,0Z" style="fill:#fff;"/></g><path d="M98640.979,10511.374l16548.792,1556.461l0,7822.734l-8927.773,7098.057l0,-4043.348l-7621.018,0l0,-12433.904Zm15214.914,2671.797l-13922.271,8943.413l7097.235,-50.595l0,3152.2l6645.728,-5117.583l-6464.399,0l6643.706,-6927.438l0,0.003Z" style="fill:#fff;"/></g></g><rect id="Artboard21" serif:id="Artboard2" x="88165.375" y="42578.217" width="37500" height="37500" style="fill:#fff;"/><g><clipPath id="_clip2"><rect x="88165.375" y="42578.217" width="37500" height="37500"/></clipPath><g clip-path="url(#_clip2)"><g><circle cx="66047.321" cy="60564.325" r="18750"/><path d="M63236.658,70965.913l1457.342,-7339.417l-10233.517,1230.567l519.242,-2769.225l1609.071,-8103.542c0,0 14406.671,-1732.379 16815.858,-2022.083c78.958,-9.496 157.683,19.417 211.729,77.754c54.046,58.338 76.871,139.042 61.379,217.046c-107.521,541.483 -307.329,1547.75 -307.329,1547.75l827.429,-132.562l3940.621,-473.854l-1792.438,9027.008l-4773.667,574.025l-1366.242,1353.192l-6969.483,6813.342l0.004,0Z" style="fill:#fff;"/></g><path d="M98640.979,52568.758l16548.792,1556.458l0,7822.733l-8927.775,7098.054l0,-4043.346l-7621.017,0l0,-12433.904l0,0.004Zm15214.913,2671.796l-13922.271,8943.413l7097.233,-50.596l0,3152.2l6645.729,-5117.579l-6464.396,0l6643.704,-6927.438Z" style="fill:#471dcf;"/></g></g><rect id="Artboard22" serif:id="Artboard2" x="0" y="7552.908" width="37500" height="37500"/><g><g><circle cx="18750" cy="26302.908" r="18750" style="fill:#fff;"/><g><path d="M8044.371,30187.354l514.896,-2593.108l-3615.629,434.775l183.454,-978.4l568.504,-2863.083c0,0 4443.883,-534.371 5721.533,-688.004c78.958,-9.496 157.683,19.417 211.729,77.754c54.046,58.338 76.871,139.042 61.379,217.046c-32.837,165.371 -65.483,329.775 -65.483,329.775l292.342,-46.837l1392.271,-167.417l-633.292,3189.354l-1686.596,202.812l-482.708,478.1l-2462.404,2407.237l0.004,-0.004Z" style="fill:#471dcf;"/><g><text x="14660.331px" y="26842.682px" style="font-family:'Montserrat-Regular', 'Montserrat';font-size:3057.519px;fill:#353535;">Sup<tspan x="20659.183px " y="26842.682px ">a</tspan></text><text x="22463.119px" y="26842.682px" style="font-family:'Montserrat-Bold', 'Montserrat';font-weight:700;font-size:3057.519px;fill:#353535;">Ph<tspan x="26826.198px 28828.872px 30953.848px " y="26842.682px 26842.682px 26842.682px ">one</tspan></text></g></g></g></g><rect id="Artboard23" serif:id="Artboard2" x="130512.646" y="0" width="37500" height="37500" style="fill:#471dcf;"/><g><g><text x="144023.319px" y="18237.412px" style="font-family:'Montserrat-Regular', 'Montserrat';font-size:3057.519px;fill:#ececec;">Sup<tspan x="150022.17px " y="18237.412px ">a</tspan></text><text x="151826.106px" y="18237.412px" style="font-family:'Montserrat-Bold', 'Montserrat';font-weight:700;font-size:3057.519px;fill:#ececec;">Ph<tspan x="156189.185px 158191.86px 160316.835px " y="18237.412px 18237.412px 18237.412px ">one</tspan></text></g><path d="M136278.75,14884.367l6718.646,631.908l0,3175.954l-3624.587,2881.742l0,-1641.558l-3094.058,0l0,-5048.046Zm6177.104,1084.725l-5652.304,3630.938l2881.408,-20.542l0,1279.763l2698.1,-2077.688l-2624.483,0l2697.279,-2812.471Z" style="fill:#fff;"/></g><rect id="Artboard24" serif:id="Artboard2" x="130512.646" y="42578.217" width="37500" height="37500" style="fill:#fff;"/><g><g><text x="144023.319px" y="60815.627px" style="font-family:'Montserrat-Regular', 'Montserrat';font-size:3057.519px;fill:#343434;">Sup<tspan x="150022.17px " y="60815.627px ">a</tspan></text><text x="151826.106px" y="60815.627px" style="font-family:'Montserrat-Bold', 'Montserrat';font-weight:700;font-size:3057.519px;fill:#343434;">Ph<tspan x="156189.185px 158191.86px 160316.835px " y="60815.627px 60815.627px 60815.627px ">one</tspan></text></g><path d="M136278.75,57462.583l6718.646,631.908l0,3175.954l-3624.587,2881.742l0,-1641.558l-3094.058,0l0,-5048.046Zm6177.104,1084.725l-5652.304,3630.938l2881.408,-20.542l0,1279.763l2698.1,-2077.688l-2624.483,0l2697.279,-2812.471Z" style="fill:#471dcf;"/></g><path d="M43338.95,11381.1l3113.412,-363.867l-174.771,354.133l942.2,-150.95l-354.533,1687.1l-960.058,174.925l-1376.4,1345.562l366.858,-1232.458l-1964.792,361.958l408.083,-2176.408l-0,0.004Z" style="fill:#fff;"/></svg>